<svg version="1.1" id="Calque_1" xmlns="http://www.w3.org/2000/svg" x="0" y="0" viewBox="0 0 300.9 140" xml:space="preserve" class="logo-img" aria-label="CGI official logo" height="46"><style>.st0{fill:#e11937}</style><g id="Layer_1"><path class="st0" d="M74.8 27c-27.4 0-44.2 21.4-44.2 43 0 26 21.2 43 44.4 43 15.4 0 30-6.8 42.4-17.8v32.2c-13 7.8-30.8 12.6-44.6 12.6C33.2 140 0 107.8 0 70 0 30 33.4 0 73 0c15.2 0 33 4.6 44.6 10.4V42C103 32.4 88.2 27 74.8 27zM201.6 140c-39.8 0-73.4-31-73.4-70 0-39.4 33.4-70 75.2-70 15.2 0 34 4 45.6 9.4v31.4C235.8 33.2 218.8 27 204 27c-27.4 0-45.2 21.4-45.2 43 0 25.4 21 43.8 45.6 43.8 5.2 0 10.2-.4 16.6-2.8V85.8h-22.4V59.2h51.2V130c-14.6 6.6-31 10-48.2 10zM272.1 137.2V2.8h28.8v134.4h-28.8z"/></g></svg>